<svg width="196" height="195" viewBox="0 0 196 195" fill="none" xmlns="http://www.w3.org/2000/svg">
<g filter="url(#filter0_d)">
<path d="M169.917 83.2665C168.471 70.0991 166.961 63.4127 162.933 55.3567C162.933 55.3567 175.016 19.105 166.961 4.20152C164.246 -0.817329 137.141 11.0007 126.685 19.105C126.685 19.105 110.575 15.0851 98.4926 15.0851C86.4099 15.0851 70.2998 19.105 70.2998 19.105C59.8443 11.0007 32.739 -0.817329 30.0244 4.20152C21.9693 19.105 34.052 55.3567 34.052 55.3567C30.0244 63.4127 28.5141 70.0991 27.0682 83.2665C25.4773 97.7028 28.643 109.211 30.0244 111.748C31.5952 114.632 39.5576 123.933 50.1621 131.888C66.2723 143.972 90.4375 148 98.4926 148C106.548 148 130.713 143.972 146.823 131.888C157.428 123.933 165.39 114.632 166.961 111.748C168.342 109.211 171.508 97.7028 169.917 83.2665Z" fill="#FFCC4D"/>
<path d="M98.4925 81.5381C110.575 81.5381 110.575 83.5521 110.575 87.58C110.575 91.608 104.534 99.6639 98.4925 99.6639C92.4512 99.6639 86.4099 91.608 86.4099 87.58C86.4099 83.5521 86.4059 81.5381 98.4925 81.5381Z" fill="#E75A70"/>
<path d="M34.0519 15.0769C35.8522 9.67132 56.7672 19.1048 60.7948 23.1328C60.7948 23.1328 42.107 35.2167 38.0794 47.3006C38.0794 47.3006 30.0244 27.1608 34.0519 15.0769ZM162.933 15.0769C161.133 9.67132 140.218 19.1048 136.19 23.1328C136.19 23.1328 154.878 35.2167 158.906 47.3006C158.906 47.3006 166.961 27.1608 162.933 15.0769Z" fill="#F18F26"/>
<path d="M45.8688 25.5621C45.8688 19.8665 70.2998 31.1891 66.2723 35.2171C62.2447 39.2451 58.2172 41.6739 54.1897 45.7019C50.1621 49.7299 45.8688 29.59 45.8688 25.5621ZM151.116 25.5621C151.116 19.8665 126.685 31.1891 130.713 35.2171C134.74 39.2451 138.768 41.6739 142.796 45.7019C146.823 49.7299 151.116 29.59 151.116 25.5621Z" fill="#FFCC4D"/>
<path d="M28.8202 103.692C28.2241 103.692 27.6361 103.431 27.2374 102.927C26.5486 102.053 26.6977 100.788 27.5716 100.099C28.2241 99.5879 43.7623 87.5322 70.4569 89.6066C71.5644 89.6872 72.3941 90.6579 72.3095 91.7656C72.2249 92.8733 71.2745 93.7836 70.1467 93.6185C45.0431 91.7092 30.2137 103.149 30.0687 103.265C29.6942 103.551 29.2551 103.692 28.8202 103.692ZM64.5364 84.91C64.339 84.91 64.1336 84.8818 63.9363 84.8214C44.6444 78.7915 28.7477 83.4237 28.5866 83.468C27.5193 83.7942 26.3996 83.186 26.0774 82.1186C25.7592 81.0512 26.3634 79.9314 27.4266 79.6132C28.1234 79.4037 44.6887 74.5903 65.1325 80.9747C66.1957 81.309 66.7878 82.4368 66.4535 83.5002C66.1877 84.3582 65.3942 84.91 64.5364 84.91ZM168.165 103.692C168.761 103.692 169.349 103.431 169.748 102.927C170.436 102.053 170.287 100.788 169.413 100.099C168.761 99.5879 153.223 87.5322 126.528 89.6066C125.421 89.6872 124.591 90.6579 124.676 91.7656C124.76 92.8733 125.711 93.7836 126.838 93.6185C151.942 91.7092 166.771 103.149 166.916 103.265C167.291 103.551 167.73 103.692 168.165 103.692ZM132.449 84.91C132.646 84.91 132.851 84.8818 133.049 84.8214C152.341 78.7915 168.237 83.4237 168.399 83.468C169.466 83.7942 170.585 83.186 170.908 82.1186C171.226 81.0512 170.622 79.9314 169.558 79.6132C168.862 79.4037 152.296 74.5903 131.853 80.9747C130.789 81.309 130.197 82.4368 130.532 83.5002C130.793 84.3582 131.591 84.91 132.449 84.91Z" fill="#FEE7B8"/>
<path d="M138.861 100.433C134.926 101.207 118.63 107.72 98.4925 107.72C78.3548 107.72 62.0594 101.207 58.1245 100.433C54.1896 99.6638 53.7264 104.755 55.9698 112.279C58.2171 119.804 70.2997 135.916 98.4925 135.916C126.685 135.916 138.768 119.804 141.015 112.279C143.259 104.755 142.795 99.6638 138.861 100.433Z" fill="#292F33"/>
<path d="M58.2172 103.692C58.2172 103.692 78.3549 111.748 98.4925 111.748C118.63 111.748 138.768 103.692 138.768 103.692C138.768 103.692 136.754 115.776 132.727 115.776C128.699 115.776 126.685 111.748 126.685 111.748C126.685 111.748 110.575 119.804 98.4925 119.804C86.4099 119.804 70.2998 111.748 70.2998 111.748C70.2998 111.748 68.286 115.776 64.2585 115.776C60.2309 115.776 58.2172 103.692 58.2172 103.692Z" fill="#F5F8FA"/>
<path d="M91.3477 23.6036C87.8881 13.8116 77.1507 8.67192 67.3597 12.1239C61.4111 14.2184 57.2063 19.0157 55.5671 24.6267C50.7703 21.2875 44.4873 20.1959 38.5507 22.2905C28.7598 25.7425 23.6166 36.4891 27.0723 46.2811C27.5636 47.6707 28.2161 48.9516 28.9733 50.1399C36.831 64.568 59.5342 74.7105 73.2842 74.8353C83.9049 66.1067 95.2142 43.965 92.2821 27.8007C92.1291 26.395 91.827 24.9892 91.3477 23.6036ZM105.637 23.6036C109.097 13.8116 119.835 8.67192 129.625 12.1239C135.574 14.2184 139.779 19.0157 141.422 24.6267C146.219 21.2875 152.502 20.1959 158.438 22.2905C168.225 25.7425 173.369 36.4891 169.917 46.2811C169.422 47.6707 168.773 48.9516 168.012 50.1399C160.154 64.568 137.451 74.7105 123.701 74.8353C113.08 66.1067 101.771 43.965 104.703 27.8007C104.856 26.395 105.158 24.9892 105.637 23.6036Z" fill="#DD2E44"/>
</g>
<defs>
<filter id="filter0_d" x="0.992554" y="0" width="195" height="195" filterUnits="userSpaceOnUse" color-interpolation-filters="sRGB">
<feFlood flood-opacity="0" result="BackgroundImageFix"/>
<feColorMatrix in="SourceAlpha" type="matrix" values="0 0 0 0 0 0 0 0 0 0 0 0 0 0 0 0 0 0 127 0"/>
<feOffset dy="22"/>
<feGaussianBlur stdDeviation="12.5"/>
<feColorMatrix type="matrix" values="0 0 0 0 0 0 0 0 0 0 0 0 0 0 0 0 0 0 0.15 0"/>
<feBlend mode="multiply" in2="BackgroundImageFix" result="effect1_dropShadow"/>
<feBlend mode="normal" in="SourceGraphic" in2="effect1_dropShadow" result="shape"/>
</filter>
</defs>
</svg>
