<svg width="152" height="56" viewBox="0 0 152 56" fill="none" xmlns="http://www.w3.org/2000/svg">
<path d="M18.4949 55.9295C17.7461 55.6577 17.4122 54.9229 17.6146 54.178C17.6854 54.0471 18.6972 51.007 20.8017 45.8932C21.5504 44.1417 22.4307 41.917 23.574 39.3601C21.1356 39.3601 19.2436 39.2896 18.2925 39.1587C17.5438 39.0279 17.0784 38.3534 17.1391 37.6085C17.1998 36.8636 17.9485 36.33 18.6264 36.4609C19.5775 36.5918 21.945 36.7327 24.7881 36.7327C26.3463 33.3 28.2383 29.3841 30.4136 25.2065C34.3394 17.7976 38.4067 11.798 42.6764 7.47942C42.3426 7.47942 41.9277 7.47942 41.523 7.40895C37.5265 7.20762 32.9937 6.94589 28.6633 6.94589C22.2991 6.94589 15.8642 8.69747 11.0583 11.5966C8.54903 13.0764 6.58617 14.8984 5.16968 16.9218C3.68236 19.076 2.86282 21.4316 2.73128 23.9281C2.52893 28.1762 4.36025 31.4075 7.88126 32.7564C9.91494 33.5618 12.2825 33.5617 14.6501 32.8873C17.1593 32.082 19.5269 30.5317 21.4189 28.2366C21.8944 27.6326 22.7039 27.5621 23.2502 28.0352C23.8573 28.5084 23.9989 29.3841 23.5234 29.9177C21.2874 32.6155 18.5151 34.4979 15.3988 35.4442C12.5557 36.32 9.51022 36.2495 6.93018 35.3133C2.32657 33.4913 -0.253472 29.2533 0.0197087 23.7268C0.15124 20.7571 1.17314 17.9285 2.93364 15.3716C4.56261 13.0764 6.79865 10.9926 9.64176 9.31152C14.9233 6.14057 21.7629 4.3286 28.6734 4.3286C33.0746 4.3286 37.6782 4.52993 41.7456 4.80173C42.9699 4.80173 44.2548 4.87219 45.469 4.93259C49.3137 1.68111 53.1787 0 56.6289 0C59.3405 0 61.3033 1.07712 61.6372 2.76829C61.7081 3.31188 61.6372 4.389 60.4838 5.39565C59.7351 6.07011 58.5918 6.6741 57.1652 7.14722C54.9999 7.89215 51.2058 7.89215 46.3998 7.69081L45.7927 8.23441C41.3207 12.412 36.9194 18.5425 32.852 26.4951C30.96 30.1391 29.1995 33.5718 27.7729 36.7327C31.0915 36.6622 34.6834 36.5314 37.658 36.33C38.4067 36.2596 39.0846 36.8736 39.1453 37.6085C39.1453 38.3534 38.599 38.9574 37.8604 39.0279C34.5417 39.2997 30.272 39.3601 26.5486 39.3601C22.2789 48.7219 20.1845 54.9229 20.1845 55.0638C19.9822 55.6074 19.4358 56.0101 18.8996 56.0101C18.768 56 18.6365 55.9295 18.4949 55.9295ZM56.295 4.65073C58.1264 3.97627 58.7334 3.43268 58.865 3.23135C58.5918 2.95955 57.8532 2.68776 56.6289 2.68776C54.5244 2.68776 52.2277 3.49308 49.7184 5.11379C52.6324 5.19432 54.9999 5.05339 56.295 4.65073Z" fill="#268286"/>
<path d="M57.1752 46.024C56.0926 44.6751 55.4855 42.7926 55.3439 40.3666C52.5008 45.3495 49.6577 47.9165 47.0169 47.9165C45.1249 47.9165 43.5667 46.9702 42.474 45.3596C41.5229 43.8798 41.1182 41.8564 41.3206 39.5009C41.4521 37.0044 42.2717 34.2461 43.6275 31.2765C44.9832 28.3774 46.6122 25.9513 48.3019 24.1998C50.1939 22.3073 52.2984 21.1698 54.5345 20.8275C58.6018 20.153 60.423 22.1059 60.8379 24.1293C60.9694 24.8742 60.504 25.5487 59.7553 25.6795C59.0065 25.8809 58.3286 25.3474 58.1971 24.6024C58.1263 24.1998 57.8632 23.928 57.5192 23.6562C57.1145 23.4548 56.3658 23.2535 54.9493 23.5253C50.8212 24.1293 47.8365 28.7096 46.076 32.4241C44.8618 35.0515 44.1131 37.548 43.9715 39.6317C43.9006 41.4538 44.1738 42.9335 44.7809 43.8798C45.3272 44.7556 46.0658 45.2287 47.0169 45.2287C47.7656 45.2287 48.7066 44.6247 49.7892 43.5476C50.801 42.4705 52.0252 40.7793 53.1787 38.8264C54.7368 36.0682 56.0218 33.0986 56.8312 30.6725C57.2359 29.0518 57.6406 27.9143 57.6406 27.7734C57.843 27.0989 58.5917 26.6963 59.2696 26.8976C59.9475 27.0989 60.423 27.7734 60.2814 28.5183C60.079 29.3941 59.8058 30.4007 59.4011 31.4879C58.7941 33.8435 58.0453 37.0849 58.0453 39.37C58.0453 44.5543 60.2106 45.7018 61.9711 45.7018C63.1953 45.7018 64.8142 44.3529 66.6455 41.9974C68.2745 39.9035 69.8933 36.944 71.7246 33.31C72.0585 32.6355 72.8781 32.3637 73.556 32.706C74.2339 33.0382 74.507 33.8536 74.163 34.4575C72.271 38.303 70.5105 41.3934 68.8107 43.6885C66.3723 46.8595 64.1363 48.4097 61.9711 48.4097C59.9475 48.3795 58.3185 47.5037 57.1752 46.024Z" fill="#268286"/>
<path d="M68.8917 23.3845C68.8917 22.7101 69.4987 22.0356 70.2475 22.0356H76.0045C77.3603 18.8042 78.9184 15.3011 80.7497 11.3248C81.0836 10.6504 81.9032 10.3786 82.5102 10.6504C83.259 10.9826 83.522 11.798 83.259 12.4724C81.63 15.9756 80.2135 19.076 78.9892 21.9752C81.63 21.9047 84.1392 21.9047 85.6265 21.9047C86.3752 21.9047 86.9823 22.5087 86.9823 23.2536C86.9823 23.9986 86.3752 24.6026 85.6265 24.6026C83.9369 24.6026 80.8813 24.673 77.8358 24.673C74.9927 31.6088 73.4346 36.5314 73.0906 39.4305C72.8174 41.6552 73.2221 43.4772 74.244 44.5544C74.8511 45.2993 75.7313 45.6315 76.6824 45.6315C77.765 45.6315 78.8476 45.1584 80.0719 44.1517C80.6789 43.749 81.4985 43.8195 81.9639 44.4235C82.4394 45.0275 82.2978 45.8429 81.7615 46.3059C80.0617 47.6448 78.3721 48.3192 76.6723 48.3192C74.9118 48.3192 73.3536 47.5743 72.1294 46.2959C70.642 44.6148 70.0249 42.0478 70.3689 39.0883C70.7736 36.1891 72.2002 31.4075 74.9016 24.7334C72.868 24.8039 71.1783 24.7334 70.2272 24.7334C69.4987 24.7334 68.8917 24.1898 68.8917 23.3845Z" fill="#268286"/>
<path d="M86.3651 44.4035C85.2117 42.511 83.7244 38.4039 87.1138 31.2667C88.4696 28.3675 90.0278 25.9415 91.7174 24.1899C93.6803 22.2974 95.714 21.1599 98.0208 20.8177C100.591 20.415 102.898 21.6934 103.849 23.9886C104.395 25.408 104.324 27.0891 103.576 28.7098C102.827 30.3909 101.339 32.0116 99.3058 33.3605C98.6279 33.6927 97.8185 33.5619 97.4138 32.9579C97.0091 32.3539 97.2114 31.4781 97.8185 31.0754C101.269 28.8507 101.886 26.3542 101.269 24.9449C100.864 23.7973 99.7105 23.2638 98.4256 23.5256C94.2267 24.1295 91.2419 28.7098 89.5522 32.4243C87.5185 36.8033 87.1847 40.5782 88.672 42.9338C89.5522 44.4136 91.1812 45.2289 93.1441 45.2289C99.6498 45.2289 105.134 38.8266 107.845 33.3001C108.118 32.6257 108.928 32.3539 109.606 32.6961C110.284 33.0283 110.557 33.8437 110.284 34.4477C108.523 37.9509 106.156 41.1218 103.576 43.4774C102.017 44.8263 100.459 45.9034 98.8303 46.6483C96.9281 47.4536 95.0361 47.9268 93.1441 47.9268C90.22 47.9066 87.7816 46.6282 86.3651 44.4035Z" fill="#268286"/>
<path d="M122.324 46.024C121.241 44.6751 120.634 42.7926 120.493 40.3666C117.649 45.3495 114.806 47.9165 112.166 47.9165C110.274 47.9165 108.715 46.9702 107.623 45.3596C106.672 43.8798 106.267 41.8564 106.469 39.5009C106.601 37.0044 107.42 34.2461 108.776 31.2765C110.132 28.3774 111.761 25.9513 113.451 24.1998C115.353 22.3073 117.447 21.1698 119.683 20.8275C123.751 20.153 125.572 22.1059 125.976 24.1293C126.108 24.8742 125.643 25.5487 124.894 25.6795C124.145 25.8809 123.467 25.3474 123.336 24.6024C123.265 24.1998 123.002 23.928 122.658 23.6562C122.253 23.4548 121.504 23.2535 120.088 23.5253C115.96 24.1293 112.975 28.7096 111.215 32.4241C109.99 35.0515 109.252 37.548 109.11 39.6317C109.039 41.4538 109.312 42.9335 109.919 43.8798C110.466 44.7556 111.204 45.2287 112.155 45.2287C112.904 45.2287 113.845 44.6247 114.928 43.5476C115.94 42.4705 117.164 40.7793 118.317 38.8264C119.875 36.0682 121.16 33.0986 121.97 30.6725C122.374 29.0518 122.779 27.9143 122.779 27.7734C122.982 27.0989 123.73 26.6963 124.408 26.8976C125.086 27.0989 125.562 27.7734 125.42 28.5183C125.218 29.3941 124.944 30.4007 124.54 31.4879C123.933 33.8435 123.184 37.0849 123.184 39.37C123.184 44.5543 125.349 45.7018 127.11 45.7018C128.334 45.7018 129.953 44.3529 131.784 41.9974C133.413 39.9035 135.032 36.944 136.863 33.31C137.197 32.6355 138.017 32.3637 138.695 32.706C139.372 33.0382 139.646 33.8536 139.302 34.4575C137.41 38.303 135.649 41.3934 133.949 43.6885C131.511 46.8595 129.275 48.4097 127.11 48.4097C125.096 48.3795 123.477 47.5037 122.324 46.024Z" fill="#268286"/>
<path d="M138.917 53.574C136.752 51.8929 133.433 47.7153 135.598 38.2729C136.347 35.0416 138.037 30.0486 140.141 24.7939C138.037 24.8643 136.276 24.7939 135.265 24.7939C134.516 24.7939 133.909 24.1899 133.909 23.4449C133.909 22.7 134.516 22.096 135.265 22.096C136.418 22.096 138.715 22.0256 141.224 22.0256C142.782 18.3211 144.34 14.5462 145.828 11.3148C146.101 10.7108 146.91 10.3686 147.588 10.7108C148.266 10.9826 148.6 11.7879 148.266 12.4624C146.981 15.3615 145.484 18.6634 144.138 22.0256C146.779 21.9551 149.288 21.8947 150.704 21.8947C151.382 21.8947 151.989 22.4987 151.989 23.3141C151.989 23.9885 151.382 24.5925 150.704 24.5925C149.075 24.5925 146.03 24.663 143.055 24.7234C140.89 30.1794 138.988 35.5751 138.249 38.8769C137.501 42.1082 137.44 44.9369 137.976 47.1616C138.452 49.0541 139.332 50.4634 140.546 51.4097C141.497 52.1546 142.651 52.5573 143.865 52.6277C144.947 52.6982 146.03 52.4969 146.91 52.0238C147.588 51.6916 148.398 51.9533 148.802 52.5673C149.075 53.2418 148.873 54.0471 148.195 54.4498C147.042 55.0538 145.686 55.396 144.33 55.396C142.438 55.396 140.475 54.7216 138.917 53.574Z" fill="#268286"/>
</svg>
